<svg xmlns="http://www.w3.org/2000/svg" xmlns:xlink="http://www.w3.org/1999/xlink" id="Layer_1" x="0px" y="0px" viewBox="0 0 619.1 312.9" style="enable-background:new 0 0 619.1 312.9;" xml:space="preserve"><style type="text/css">	.st0{fill:#91D03D;}	.st1{fill:#FF9424;}</style><path class="st0" d="M273.4,89.8c-16.3-8.5-34.6-8.8-50.3-2.4c-12.6,5.1-23.5,14.5-30.3,27.3l-0.2,0.3c9.7,5.1,20.2,7.2,30.5,6.7 C243.6,120.9,263.2,109.3,273.4,89.8L273.4,89.8z"></path><path class="st1" d="M215.1,154.2V129v-2.2c-10.2,0.5-20.8-2.6-30.5-9.7l0.2-0.3c6.1-14.8,17.1-26.8,30.3-31.3V67h36.7 c17.7,0,32-14.3,32-32h-68.1c-0.2,0-0.4,0-0.6,0v0c-17.7,0-32,14.3-32,32V94H60.5V67v-1v-3.6C61.2,45.3,75.1,31.1,92.4,31 c17.1-0.1,31.1,13.2,32.1,30c19.1,0,30-22.2,18-37.1C130.7,9.3,112.7,0,92.6,0c-35.4,0-64.1,28.7-64,64.2c0,0,0,0,0,0l0,0 c-0.1,0.9-0.1,1.9-0.1,2.9v0V94v0.5H0c0,16.5,12.4,30,28.4,31.8v59.9c17.7,0,32-14.3,32-32V126h45.9c0,0,0,0.1,0,0.1v0.4v111.1 c0,20.7,31.1,21.7,32,1.1c0-0.5,0-1,0-1.5V126H183l0,0v0l0,25.1c0,19.4,15.8,35.2,35.2,35.2h32.9c17.7,0,32-14.3,32-32L215.1,154.2 C215.1,154.3,215.1,154.2,215.1,154.2z"></path><g>	<path class="st0" d="M190.6,250c0,2.1-1.7,3.9-3.9,3.9s-3.9-1.7-3.9-3.9v-37.6c0-2.1,1.7-3.9,3.9-3.9h20.8c1.9,0,3.5,1.5,3.5,3.5  c0,1.9-1.5,3.5-3.5,3.5h-16.9v12.3h12.6c1.9,0,3.4,1.5,3.4,3.4c0,1.9-1.5,3.4-3.4,3.4h-12.6V250z"></path>	<path class="st0" d="M220.9,226.5c1.3-2.6,4.4-4.3,7.2-4.3c1.9,0,3.4,1.5,3.4,3.4c0,1.9-1.5,3.4-3.4,3.4c-4.6,0-7.2,2.9-7.2,7.4  v13.8c0,2-1.6,3.6-3.6,3.6c-2,0-3.6-1.6-3.6-3.6v-24.1c0-2,1.6-3.6,3.6-3.6c2,0,3.6,1.6,3.6,3.6V226.5z"></path>	<path class="st0" d="M241.8,226.1v15.5c0,3.1,1.1,6,6,6c4.9,0,5.9-2.9,5.9-6v-15.5c0-2,1.6-3.6,3.6-3.6c2,0,3.6,1.6,3.6,3.6v15.5  c0,6.5-2.5,12.5-13.1,12.5c-10.7,0-13.2-6-13.2-12.5v-15.5c0-2,1.6-3.6,3.6-3.6C240.2,222.5,241.8,224.1,241.8,226.1z"></path>	<path class="st0" d="M269.6,217.5c0-1.9,1.6-3.5,3.5-3.5c1.9,0,3.5,1.6,3.5,3.5v5.6h3c1.7,0,3,1.3,3,3s-1.3,3-3,3h-3v16.1  c0,1.5,1.3,2.4,2.5,2.4c1.7,0,3.1,1.4,3.1,3.1s-1.4,3.1-3.1,3.1c-5.9,0-9.6-3.8-9.6-9.1v-15.7H268c-1.7,0-3-1.3-3-3s1.3-3,3-3h1.5  V217.5z"></path>	<path class="st0" d="M300.8,254.2c-9,0-14.6-5.1-14.6-16c0-10.9,5.6-16,14.6-16s14.6,5.1,14.6,16  C315.3,249,309.8,254.2,300.8,254.2z M300.8,228.3c-4.8,0-7.3,3.3-7.3,9.9c0,6.5,2.5,9.9,7.3,9.9c4.8,0,7.3-3.3,7.3-9.9  C308.1,231.6,305.6,228.3,300.8,228.3z"></path>	<path class="st0" d="M327.4,230.9c0,4.9,16.4,2.7,16.4,13.6c0,6.3-5.3,9.5-12.2,9.5c-5.7,0-10.1-2.6-11.8-4.7  c-0.5-0.7-0.8-1.3-0.8-2.1c0-1.7,1.5-3.2,3.2-3.2c0.7,0,1.3,0.2,2.1,0.8c1.8,1.5,4,2.7,7.3,2.7c3,0,4.9-0.8,4.9-2.7  c0-5.4-16.3-2.6-16.3-13.9c0-6,5-8.9,11.1-8.9c4.7,0,8.9,1.8,10.8,4.1c0.4,0.5,0.7,1,0.7,2c0,1.7-1.5,3.2-3.2,3.2  c-0.9,0-1.5-0.4-2.3-0.9c-1.5-1.1-3.3-2.1-6-2.1C328.9,228.4,327.4,229.3,327.4,230.9z"></path>	<path class="st0" d="M366.3,217.5c0-1.9,1.6-3.5,3.5-3.5c1.9,0,3.5,1.6,3.5,3.5v5.6h3c1.7,0,3,1.3,3,3s-1.3,3-3,3h-3v16.1  c0,1.5,1.3,2.4,2.5,2.4c1.7,0,3.1,1.4,3.1,3.1s-1.4,3.1-3.1,3.1c-5.9,0-9.6-3.8-9.6-9.1v-15.7h-1.5c-1.7,0-3-1.3-3-3s1.3-3,3-3h1.5  V217.5z"></path>	<path class="st0" d="M391.5,226.5c1.3-2.6,4.4-4.3,7.2-4.3c1.9,0,3.4,1.5,3.4,3.4c0,1.9-1.5,3.4-3.4,3.4c-4.6,0-7.2,2.9-7.2,7.4  v13.8c0,2-1.6,3.6-3.6,3.6c-2,0-3.6-1.6-3.6-3.6v-24.1c0-2,1.6-3.6,3.6-3.6c2,0,3.6,1.6,3.6,3.6V226.5z"></path>	<path class="st0" d="M418.7,254.2c-9,0-14.6-5.1-14.6-16c0-10.9,5.6-16,14.6-16s14.6,5.1,14.6,16  C433.3,249,427.7,254.2,418.7,254.2z M418.7,228.3c-4.8,0-7.3,3.3-7.3,9.9c0,6.5,2.5,9.9,7.3,9.9c4.8,0,7.3-3.3,7.3-9.9  C426,231.6,423.5,228.3,418.7,228.3z"></path>	<path class="st0" d="M453.9,222.1c8.7,0,13.5,5.1,13.5,16c0,10.8-4.9,16-13.5,16c-3.3,0-6.3-1.1-7.9-2.9v11.8c0,2-1.6,3.6-3.6,3.6  s-3.6-1.6-3.6-3.6v-36.9c0-2,1.6-3.6,3.6-3.6s3.6,1.6,3.6,3.6C447.1,224.5,450.2,222.1,453.9,222.1z M453,228.3  c-4.7,0-7.1,3.3-7.1,9.9c0,6.5,2.5,9.9,7.1,9.9s7.1-3.3,7.1-9.9C460.1,231.6,457.6,228.3,453,228.3z"></path>	<path class="st0" d="M472.4,214.7c0-3.1,1.5-4.4,4.3-4.4c2.8,0,4.3,1.3,4.3,4.4c0,2.6-1.5,4.2-4.3,4.2  C474,218.9,472.4,217.3,472.4,214.7z M480.3,250.2c0,2-1.6,3.6-3.6,3.6s-3.6-1.6-3.6-3.6v-24.1c0-2,1.6-3.6,3.6-3.6  s3.6,1.6,3.6,3.6V250.2z"></path>	<path class="st0" d="M500,222.1c6.1,0,9.7,3.1,10.8,4.6c0.5,0.7,0.7,1.3,0.7,2.1c0,1.8-1.4,3.2-3.2,3.2c-1.1,0-1.9-0.5-2.5-1.1  c-0.9-0.9-2.6-2.6-5.9-2.6c-4.7,0-7.2,3.6-7.2,9.9c0,6.4,2.5,9.9,7.2,9.9c3.1,0,5.1-1.5,6.6-2.7c0.7-0.5,1.3-0.7,2-0.7  c1.8,0,3.2,1.4,3.2,3.2c0,0.9-0.3,1.7-1.1,2.5c-1.5,1.4-5.2,3.8-10.6,3.8c-9.1,0-14.4-5.2-14.4-16  C485.5,227.3,490.9,222.1,500,222.1z"></path>	<path class="st0" d="M522.2,231.1c-0.7,0.5-1.2,0.7-2,0.7c-1.7,0-3.1-1.4-3.1-3.1c0-0.7,0.3-1.5,0.9-2.2c1.9-2.1,5.2-4.3,10.9-4.3  c8.3,0,13.2,4.1,13.2,11.1v17c0,1.9-1.6,3.5-3.5,3.5c-1.9,0-3.5-1.6-3.5-3.5c-1.8,2.9-4.7,3.9-8.7,3.9c-6.5,0-10.8-4.1-10.8-10  c0-6.2,5-9.4,10.8-9.4h8.7v-1.2c0-3-2.2-5-6.1-5C525.9,228.5,523.9,229.9,522.2,231.1z M534.9,242.2v-1.9h-7.8  c-2.9,0-4.5,1.4-4.5,3.8c0,2.5,1.8,4.1,5.5,4.1C531.7,248.2,534.9,245.9,534.9,242.2z"></path>	<path class="st0" d="M555.9,209.5V246c0,0.8,0.8,1.2,1.3,1.2c1.9,0,3.3,1.5,3.3,3.3c0,1.9-1.5,3.3-3.3,3.3c-5.2,0-8.5-2.9-8.5-8.5  v-35.8c0-2,1.6-3.6,3.6-3.6S555.9,207.5,555.9,209.5z"></path>	<path class="st0" d="M577.6,222.1c11.2,0,13.3,8.7,13.3,13.2c0,2.5,0,5.3-4.1,5.3h-16.4c0,4.8,3.4,7,7.8,7c2.9,0,5-1,6.6-2.1  c0.7-0.5,1.3-0.7,2.1-0.7c1.7,0,3.1,1.4,3.1,3.1c0,1.1-0.5,1.9-1.1,2.5c-1.1,1.1-4.7,3.7-10.7,3.7c-9.3,0-15-5-15-16.1  C563.2,227.9,568.5,222.1,577.6,222.1z M570.6,234.7h13.2c0-3.3-1.9-6.5-6.2-6.5C573.7,228.3,570.9,230.5,570.6,234.7z"></path>	<path class="st0" d="M602.7,230.9c0,4.9,16.4,2.7,16.4,13.6c0,6.3-5.3,9.5-12.2,9.5c-5.7,0-10.1-2.6-11.8-4.7  c-0.5-0.7-0.8-1.3-0.8-2.1c0-1.7,1.5-3.2,3.2-3.2c0.7,0,1.3,0.2,2.1,0.8c1.8,1.5,4,2.7,7.3,2.7c3,0,4.9-0.8,4.9-2.7  c0-5.4-16.3-2.6-16.3-13.9c0-6,5-8.9,11.1-8.9c4.7,0,8.9,1.8,10.8,4.1c0.4,0.5,0.7,1,0.7,2c0,1.7-1.5,3.2-3.2,3.2  c-0.9,0-1.5-0.4-2.3-0.9c-1.5-1.1-3.3-2.1-6-2.1C604.1,228.4,602.7,229.3,602.7,230.9z"></path></g><g>	<path class="st0" d="M200.6,302.8H184c-0.5,0-0.9-0.2-1.2-0.5c-0.3-0.3-0.5-0.7-0.5-1.2v-30.3c0-0.5,0.2-0.9,0.5-1.2  s0.7-0.5,1.2-0.5h16.1c0.4,0,0.8,0.2,1.1,0.5c0.3,0.3,0.5,0.7,0.5,1.1c0,0.4-0.2,0.8-0.5,1.1s-0.7,0.5-1.1,0.5h-14.4v12.1h11  c0.4,0,0.8,0.2,1.1,0.5s0.5,0.7,0.5,1.1c0,0.4-0.2,0.8-0.5,1.1c-0.3,0.3-0.7,0.5-1.1,0.5h-11v12.3h14.9c0.4,0,0.8,0.1,1.1,0.5  c0.3,0.3,0.5,0.7,0.5,1.1c0,0.4-0.2,0.8-0.5,1.1C201.4,302.7,201.1,302.8,200.6,302.8z"></path>	<path class="st0" d="M207.5,280.1c0.3-0.3,0.7-0.5,1.1-0.5c0.4,0,0.8,0.2,1.1,0.5c0.3,0.3,0.5,0.7,0.5,1.1v13.1  c0,1.9,0.4,3.3,1.3,4.4c0.9,1.1,2.5,1.6,4.8,1.6c2.3,0,3.9-0.5,4.8-1.6c0.9-1.1,1.3-2.6,1.3-4.4v-13.1c0-0.4,0.2-0.8,0.5-1.1  s0.7-0.5,1.2-0.5c0.4,0,0.8,0.2,1.1,0.5s0.5,0.7,0.5,1.1v13.1c0,2.8-0.7,5-2,6.6c-1.3,1.7-3.8,2.5-7.3,2.5c-3.5,0-6-0.8-7.3-2.5  c-1.3-1.7-2-3.9-2-6.6v-13.1C207,280.8,207.1,280.4,207.5,280.1z"></path>	<path class="st0" d="M234.8,281.3v2.2c0.5-1.2,1.4-2.2,2.6-2.9c1.2-0.7,2.7-1.1,4.3-1.1c0.4,0,0.8,0.2,1.1,0.5  c0.3,0.3,0.5,0.7,0.5,1.1c0,0.4-0.2,0.8-0.5,1.1c-0.3,0.3-0.7,0.5-1.1,0.5c-2.2,0-4,0.7-5.2,2.1s-1.8,3.3-1.8,5.7v11.2  c0,0.5-0.2,0.9-0.5,1.2c-0.3,0.3-0.7,0.5-1.1,0.5c-0.4,0-0.8-0.2-1.1-0.5s-0.5-0.7-0.5-1.2v-20.3c0-0.5,0.2-0.9,0.5-1.2  c0.3-0.3,0.7-0.5,1.1-0.5c0.4,0,0.8,0.2,1.1,0.5C234.7,280.4,234.8,280.8,234.8,281.3z"></path>	<path class="st0" d="M248.1,282.4c1.8-2,4.4-3,7.8-3s5.9,1,7.8,3c1.8,2,2.8,5,2.8,9c0,4-0.9,7-2.8,9c-1.8,2-4.4,3-7.8,3  c-3.3,0-5.9-1-7.7-3c-1.9-2-2.8-5-2.8-9C245.4,287.4,246.3,284.4,248.1,282.4z M255.9,300.6c4.8,0,7.3-3.1,7.3-9.2  c0-6.1-2.4-9.1-7.3-9.1s-7.3,3-7.3,9.1C248.6,297.5,251,300.6,255.9,300.6z"></path>	<path class="st0" d="M271.9,280.2c0.3-0.3,0.7-0.5,1.1-0.5c0.4,0,0.8,0.2,1.1,0.5c0.3,0.3,0.5,0.7,0.5,1.1v1.6  c0.5-0.9,1.4-1.8,2.6-2.5c1.2-0.7,2.6-1.1,4.2-1.1c3.3,0,5.9,1,7.7,3s2.7,5,2.7,9c0,4-0.9,7-2.7,9c-1.8,2-4.4,3-7.7,3  c-1.6,0-2.9-0.3-4.1-1c-1.2-0.7-2.1-1.5-2.7-2.5v11.3c0,0.4-0.2,0.8-0.5,1.1c-0.3,0.3-0.7,0.5-1.1,0.5c-0.4,0-0.8-0.2-1.1-0.5  c-0.3-0.3-0.5-0.7-0.5-1.1v-30C271.4,280.9,271.6,280.5,271.9,280.2z M276.4,284.6c-1.3,1.5-1.9,3.8-1.9,6.9c0,3.1,0.6,5.4,1.9,6.9  c1.3,1.5,2.9,2.3,5,2.3c4.8,0,7.2-3.1,7.2-9.2c0-6.1-2.4-9.1-7.3-9.1C279.3,282.3,277.7,283.1,276.4,284.6z"></path>	<path class="st0" d="M295.4,291.4c0-3.8,0.9-6.8,2.7-8.9c1.8-2.1,4.3-3.1,7.6-3.1c1.5,0,2.9,0.2,4.1,0.7c1.2,0.5,2.1,1.1,2.8,1.8  c0.7,0.7,1.2,1.5,1.7,2.4c0.4,0.9,0.7,1.8,0.9,2.6c0.2,0.8,0.2,1.6,0.2,2.3c0,0.5,0,0.9-0.1,1.2s-0.1,0.6-0.2,1  c-0.1,0.4-0.3,0.6-0.6,0.8s-0.7,0.3-1.2,0.3h-14.6c0,2.5,0.7,4.5,2,6c1.4,1.5,3.2,2.2,5.5,2.2c2.1,0,4.1-0.7,6-2.2  c0.3-0.2,0.6-0.3,0.9-0.3c0.4,0,0.7,0.1,1,0.4c0.3,0.3,0.4,0.6,0.4,1c0,0.4-0.2,0.8-0.6,1.2c-1.9,1.9-4.5,2.8-7.8,2.8  c-3.4,0-6.1-1-8-3S295.4,295.5,295.4,291.4z M312.1,289.6c0-4.8-2.1-7.3-6.4-7.3c-2.1,0-3.8,0.6-5,1.9c-1.2,1.3-1.9,3.1-2.1,5.3  H312.1z"></path></g></svg>